<svg width="100" height="350" xmlns="http://www.w3.org/2000/svg">
 <defs>
  <linearGradient y2="0.00003" x2="0.50511" y1="0.99997" x1="0.49491" id="svg_5">
   <stop stop-color="#F5F8E2" offset="0"/>
   <stop stop-color="#F4C0D7" offset="0.2205"/>
   <stop stop-color="#E0B9D4" offset="0.3082"/>
   <stop stop-color="#BEAECF" offset="0.4792"/>
   <stop stop-color="#BAB1D0" offset="0.5041"/>
   <stop stop-color="#9CC1D5" offset="0.6961"/>
   <stop stop-color="#8AC9D8" offset="0.8586"/>
   <stop stop-color="#83CCD9" offset="0.971"/>
  </linearGradient>
  <linearGradient id="svg_15" x1="0.49491" y1="0.99997" x2="0.50511" y2="0.00003">
   <stop offset="0" stop-color="#F5F8E2"/>
   <stop offset="0.2205" stop-color="#F4C0D7"/>
   <stop offset="0.3082" stop-color="#E0B9D4"/>
   <stop offset="0.4792" stop-color="#BEAECF"/>
   <stop offset="0.5041" stop-color="#BAB1D0"/>
   <stop offset="0.6961" stop-color="#9CC1D5"/>
   <stop offset="0.8586" stop-color="#8AC9D8"/>
   <stop offset="0.971" stop-color="#83CCD9"/>
  </linearGradient>
  <linearGradient gradientTransform="matrix(0.003907890524715185,-0.38267508149147034,0.3830881714820862,0.00390367629006505,-362.5617980957031,558.8348388671875)" y2="1159.6104" x2="1047.2471" y1="1159.6104" x1="898.3535" gradientUnits="userSpaceOnUse" id="svg_25">
   <stop stop-color="#F5F8E2" offset="0"/>
   <stop stop-color="#F4C0D7" offset="0.2205"/>
   <stop stop-color="#E0B9D4" offset="0.3082"/>
   <stop stop-color="#BEAECF" offset="0.4792"/>
   <stop stop-color="#BAB1D0" offset="0.5041"/>
   <stop stop-color="#9CC1D5" offset="0.6961"/>
   <stop stop-color="#8AC9D8" offset="0.8586"/>
   <stop stop-color="#83CCD9" offset="0.971"/>
  </linearGradient>
 </defs>
 <g>
  <title>Layer 1</title>
  <g id="svg_8">
   <g id="svg_7"/>
   <g id="svg_6"/>
   <g id="svg_2">
    <g id="svg_4">
     <path d="m51.09418,8.55819c-20.05606,-0.17373 -36.4782,13.50288 -36.6831,30.55086c-0.20294,17.04549 15.89089,31.00571 35.94695,31.17903c20.05704,0.17415 36.48162,-13.50579 36.68407,-30.55211c0.20538,-17.04674 -15.89137,-31.00613 -35.94792,-31.17779l0,0z" fill="url(#svg_5)" id="svg_9"/>
    </g>
    <g id="svg_3">
     <path d="m40.97151,18.83773c-1.54548,4.57919 1.57231,9.35698 6.95806,10.66846c5.3877,1.31438 11.00712,-1.33387 12.55309,-5.91389c1.54401,-4.57794 -1.57084,-9.3545 -6.95806,-10.66763c-5.38721,-1.31355 -11.01005,1.3347 -12.55309,5.91306l0,0z" fill="#FFFFFF" id="svg_10"/>
    </g>
   </g>
   <g id="svg_1"/>
  </g>
  <g transform="matrix(0, 1.28662, -1.45142, 0, 537.618, 358.779)" id="svg_18">
   <g id="svg_17"/>
   <g id="svg_16"/>
   <g id="svg_12">
    <g id="svg_14">
     <path id="svg_19" fill="url(#svg_15)" d="m-35.666,314.24512c-14.37049,-0.13503 -26.13721,10.49487 -26.28402,23.74511c-0.14541,13.2483 11.38607,24.09864 25.75656,24.23334c14.37119,0.13535 26.13966,-10.49713 26.28472,-23.74608c0.14716,-13.24927 -11.38642,-24.09896 -25.75726,-24.23238l0,0z"/>
    </g>
    <g id="svg_13">
     <path id="svg_20" fill="#FFFFFF" d="m-42.91906,322.23471c-1.10736,3.55909 1.12658,7.27255 4.98556,8.29187c3.86037,1.02158 7.88678,-1.03673 8.99449,-4.59646c1.10631,-3.55813 -1.12553,-7.27062 -4.98556,-8.29123c-3.86002,-1.02093 -7.88888,1.03737 -8.99449,4.59582l0,0z"/>
    </g>
   </g>
   <g id="svg_11"/>
  </g>
  <g transform="matrix(0, -1.02062, 1.45142, 0, -233.825, 255.793)">
   <g id="svg_27"/>
   <g id="svg_26"/>
   <g id="svg_22">
    <g id="svg_24">
     <path d="m81.71955,170.10597c-17.40783,-0.13503 -31.66156,10.49487 -31.8394,23.74511c-0.17614,13.2483 13.79263,24.09864 31.20045,24.23334c17.40867,0.13535 31.66453,-10.49713 31.84025,-23.74608c0.17826,-13.24927 -13.79305,-24.09896 -31.2013,-24.23238l0,0z" fill="url(#svg_25)"/>
    </g>
    <g id="svg_23">
     <path d="m72.93349,178.09556c-1.34141,3.55909 1.3647,7.27255 6.0393,8.29187c4.6763,1.02158 9.55373,-1.03673 10.89556,-4.59646c1.34014,-3.55813 -1.36343,-7.27062 -6.0393,-8.29123c-4.67588,-1.02093 -9.55627,1.03737 -10.89556,4.59582l0,0z" fill="#FFFFFF"/>
    </g>
   </g>
   <g id="svg_21"/>
  </g>
 </g>
</svg>