<svg width="750" height="150" xmlns="http://www.w3.org/2000/svg">
 <g id="Layer_1">
  <title>Layer 1</title>
  <g id="svg_2"/>
  <g id="svg_1">
   <polyline points="140.2889862060547,105.80000305175781 140.2889862060547,96.46199035644531 156.22398376464844,86.20899963378906 172.1589813232422,96.46199035644531 172.1589813232422,105.80000305175781 " stroke-linejoin="round" stroke-linecap="round" stroke-width="0.914" stroke="#13007C" fill="none"/>
   <rect height="12.67" width="27.994" fill="#13007C" y="93.13" x="258.46599"/>
   <rect height="18.978" width="65.518" fill="#13007C" y="108.428" x="609.28799"/>
   <polyline points="667.7699584960938,66.97200012207031 667.7699584960938,2.1880035400390625 674.8059692382812,2.1880035400390625 674.8059692382812,105.63301086425781 " stroke-linejoin="round" stroke-linecap="round" stroke-width="0.914" stroke="#13007C" fill="none"/>
   <polyline points="632.1619873046875,66.97200012207031 663.5089721679688,55.52198791503906 667.7699584960938,66.97200012207031 " stroke-linejoin="round" stroke-linecap="round" stroke-width="0.914" stroke="#13007C" fill="none"/>
   <polyline points="596.5559692382812,66.97200012207031 627.9010009765625,55.52198791503906 632.1619873046875,66.97200012207031 " stroke-linejoin="round" stroke-linecap="round" stroke-width="0.914" stroke="#13007C" fill="none"/>
   <polyline points="560.948974609375,66.97200012207031 592.2969970703125,55.52198791503906 596.5559692382812,66.97200012207031 " stroke-linejoin="round" stroke-linecap="round" stroke-width="0.914" stroke="#13007C" fill="none"/>
   <line y2="66.972" x2="560.94899" y1="105.633" x1="560.94899" stroke-linejoin="round" stroke-linecap="round" stroke-width="0.914" stroke="#13007C" fill="none"/>
   <g>
    <rect height="14.403" width="27.992" fill="#13007C" y="108.428" x="448.52399"/>
    <rect height="10.195" width="3.636" stroke-linejoin="round" stroke-linecap="round" stroke-width="1.0219" stroke="#13007C" fill="none" y="95.605" x="495.16099"/>
    <rect height="50.844" width="19.316" stroke-linejoin="round" stroke-linecap="round" stroke-width="1.0219" stroke="#13007C" fill="none" y="54.956" x="482.15099"/>
    <rect height="7.898" width="3.636" stroke-linejoin="round" stroke-linecap="round" stroke-width="1.0219" stroke="#13007C" fill="none" y="58.485" x="495.16099"/>
    <rect height="7.898" width="3.637" stroke-linejoin="round" stroke-linecap="round" stroke-width="1.0219" stroke="#13007C" fill="none" y="58.485" x="484.82199"/>
    <rect height="7.898" width="3.635" stroke-linejoin="round" stroke-linecap="round" stroke-width="1.0219" stroke="#13007C" fill="none" y="58.485" x="489.99199"/>
    <rect height="7.896" width="3.636" stroke-linejoin="round" stroke-linecap="round" stroke-width="1.0219" stroke="#13007C" fill="none" y="83.233" x="495.16099"/>
    <rect height="7.898" width="3.636" stroke-linejoin="round" stroke-linecap="round" stroke-width="1.0219" stroke="#13007C" fill="none" y="70.86" x="495.16099"/>
    <rect height="7.896" width="3.637" stroke-linejoin="round" stroke-linecap="round" stroke-width="1.0219" stroke="#13007C" fill="none" y="83.233" x="484.82199"/>
    <rect height="7.896" width="3.635" stroke-linejoin="round" stroke-linecap="round" stroke-width="1.0219" stroke="#13007C" fill="none" y="83.233" x="489.99199"/>
    <rect height="7.898" width="3.637" stroke-linejoin="round" stroke-linecap="round" stroke-width="1.0219" stroke="#13007C" fill="none" y="70.86" x="484.82199"/>
    <rect height="7.898" width="3.635" stroke-linejoin="round" stroke-linecap="round" stroke-width="1.0219" stroke="#13007C" fill="none" y="70.86" x="489.99199"/>
    <rect height="38.121" width="14.051" stroke-linejoin="round" stroke-linecap="round" stroke-width="1.0219" stroke="#13007C" fill="none" y="67.679" x="428.55099"/>
    <rect height="7.898" width="3.637" stroke-linejoin="round" stroke-linecap="round" stroke-width="1.0219" stroke="#13007C" fill="none" y="70.86" x="436.39099"/>
    <rect height="7.898" width="3.635" stroke-linejoin="round" stroke-linecap="round" stroke-width="1.0219" stroke="#13007C" fill="none" y="70.86" x="431.22299"/>
    <rect height="7.896" width="3.637" stroke-linejoin="round" stroke-linecap="round" stroke-width="1.0219" stroke="#13007C" fill="none" y="83.233" x="436.39099"/>
    <rect height="7.896" width="3.635" stroke-linejoin="round" stroke-linecap="round" stroke-width="1.0219" stroke="#13007C" fill="none" y="83.233" x="431.22299"/>
    <rect height="10.195" width="3.635" stroke-linejoin="round" stroke-linecap="round" stroke-width="1.0219" stroke="#13007C" fill="none" y="95.605" x="431.22299"/>
    <rect height="7.897" width="3.635" stroke-linejoin="round" stroke-linecap="round" stroke-width="1.0219" stroke="#13007C" fill="none" y="46.113" x="471.03999"/>
    <rect height="7.897" width="3.636" stroke-linejoin="round" stroke-linecap="round" stroke-width="1.0219" stroke="#13007C" fill="none" y="46.113" x="465.87199"/>
    <rect height="7.897" width="3.635" stroke-linejoin="round" stroke-linecap="round" stroke-width="1.0219" stroke="#13007C" fill="none" y="46.113" x="460.70199"/>
    <rect height="7.897" width="3.636" stroke-linejoin="round" stroke-linecap="round" stroke-width="1.0219" stroke="#13007C" fill="none" y="46.113" x="455.53399"/>
    <rect height="7.897" width="3.634" stroke-linejoin="round" stroke-linecap="round" stroke-width="1.0219" stroke="#13007C" fill="none" y="46.113" x="450.36399"/>
    <rect height="7.898" width="3.635" stroke-linejoin="round" stroke-linecap="round" stroke-width="1.0219" stroke="#13007C" fill="none" y="58.485" x="471.03999"/>
    <rect height="7.898" width="3.636" stroke-linejoin="round" stroke-linecap="round" stroke-width="1.0219" stroke="#13007C" fill="none" y="58.485" x="465.87199"/>
    <rect height="7.898" width="3.635" stroke-linejoin="round" stroke-linecap="round" stroke-width="1.0219" stroke="#13007C" fill="none" y="58.485" x="460.70199"/>
    <rect height="7.898" width="3.636" stroke-linejoin="round" stroke-linecap="round" stroke-width="1.0219" stroke="#13007C" fill="none" y="58.485" x="455.53399"/>
    <rect height="7.898" width="3.634" stroke-linejoin="round" stroke-linecap="round" stroke-width="1.0219" stroke="#13007C" fill="none" y="58.485" x="450.36399"/>
    <rect height="68.1" width="29.654" stroke-linejoin="round" stroke-linecap="round" stroke-width="1.0219" stroke="#13007C" fill="none" y="37.701" x="447.69099"/>
    <rect height="7.898" width="3.635" stroke-linejoin="round" stroke-linecap="round" stroke-width="1.0219" stroke="#13007C" fill="none" y="70.86" x="471.03999"/>
    <rect height="7.896" width="3.635" stroke-linejoin="round" stroke-linecap="round" stroke-width="1.0219" stroke="#13007C" fill="none" y="83.233" x="471.03999"/>
    <rect height="7.898" width="3.636" stroke-linejoin="round" stroke-linecap="round" stroke-width="1.0219" stroke="#13007C" fill="none" y="70.86" x="465.87199"/>
    <rect height="7.896" width="3.636" stroke-linejoin="round" stroke-linecap="round" stroke-width="1.0219" stroke="#13007C" fill="none" y="83.233" x="465.87199"/>
    <rect height="7.898" width="3.635" stroke-linejoin="round" stroke-linecap="round" stroke-width="1.0219" stroke="#13007C" fill="none" y="70.86" x="460.70199"/>
    <rect height="7.896" width="3.635" stroke-linejoin="round" stroke-linecap="round" stroke-width="1.0219" stroke="#13007C" fill="none" y="83.233" x="460.70199"/>
    <rect height="7.898" width="3.636" stroke-linejoin="round" stroke-linecap="round" stroke-width="1.0219" stroke="#13007C" fill="none" y="70.86" x="455.53399"/>
    <rect height="7.898" width="3.634" stroke-linejoin="round" stroke-linecap="round" stroke-width="1.0219" stroke="#13007C" fill="none" y="70.86" x="450.36399"/>
    <rect height="7.896" width="3.636" stroke-linejoin="round" stroke-linecap="round" stroke-width="1.0219" stroke="#13007C" fill="none" y="83.233" x="455.53399"/>
    <rect height="7.896" width="3.634" stroke-linejoin="round" stroke-linecap="round" stroke-width="1.0219" stroke="#13007C" fill="none" y="83.233" x="450.36399"/>
    <rect height="10.195" width="3.634" stroke-linejoin="round" stroke-linecap="round" stroke-width="1.0219" stroke="#13007C" fill="none" y="95.605" x="450.36399"/>
   </g>
   <rect height="6.317" width="3.635" stroke-linejoin="round" stroke-linecap="round" stroke-width="0.914" stroke="#13007C" fill="none" y="85.488" x="357.03199"/>
   <rect height="6.317" width="3.635" stroke-linejoin="round" stroke-linecap="round" stroke-width="0.914" stroke="#13007C" fill="none" y="85.488" x="351.86299"/>
   <rect height="10.221" width="3.635" stroke-linejoin="round" stroke-linecap="round" stroke-width="1.0232" stroke="#13007C" fill="none" y="95.605" x="351.86299"/>
   <polygon points="344.9169616699219,82.96598815917969 356.1619873046875,66.97200012207031 367.406005859375,82.96598815917969 367.406005859375,105.79701232910156 344.9169616699219,105.79701232910156 " stroke-linejoin="round" stroke-linecap="round" stroke-width="0.914" stroke="#13007C" fill="none"/>
   <rect height="6.775" width="14.969" fill="#13007C" y="108.428" x="348.67599"/>
   <rect height="8.155" width="3.635" stroke-linejoin="round" stroke-linecap="round" stroke-width="0.914" stroke="#13007C" fill="none" y="97.645" x="229.13699"/>
   <polyline points="250.14199829101562,105.80000305175781 250.14199829101562,96.46199035644531 234.20797729492188,86.20899963378906 218.27099609375,96.46199035644531 218.27099609375,105.80000305175781 " stroke-linejoin="round" stroke-linecap="round" stroke-width="0.914" stroke="#13007C" fill="none"/>
   <rect height="8.155" width="3.635" stroke-linejoin="round" stroke-linecap="round" stroke-width="0.914" stroke="#13007C" fill="none" y="97.645" x="157.65899"/>
   <rect height="10.762" width="4.797" stroke-linejoin="round" stroke-linecap="round" stroke-width="0.914" stroke="#13007C" fill="none" y="95.038" x="192.82599"/>
   <polyline points="174.18698120117188,105.80000305175781 174.18698120117188,93.47700500488281 195.2149658203125,79.94898986816406 216.24398803710938,93.47700500488281 216.24398803710938,105.80000305175781 " stroke-linejoin="round" stroke-linecap="round" stroke-width="0.914" stroke="#13007C" fill="none"/>
   <g>
    <rect height="2.808" width="5.294" stroke-linejoin="round" stroke-linecap="round" stroke-width="0.914" stroke="#13007C" fill="none" y="58.432" x="70.85099"/>
    <path d="m76.14399,62.972c0,0.812 0.277,1.601 0.784,2.235c0.458,0.572 0.916,1.145 1.374,1.717c0.507,0.634 0.784,1.421 0.784,2.234c0,10.87 0,21.737 0,32.606c0,0.773 -0.404,1.474 -0.963,1.964c-0.565,0.494 -1.298,0.796 -2.042,0.863c-0.861,0 -1.723,0 -2.583,0c-0.861,0 -1.723,0 -2.583,0c-0.745,-0.067 -1.478,-0.369 -2.042,-0.863c-0.56,-0.49 -0.963,-1.19 -0.963,-1.964c0,-10.869 0,-21.736 0,-32.606c0,-0.813 0.276,-1.6 0.785,-2.234c0.457,-0.573 0.915,-1.146 1.373,-1.717c0.507,-0.634 0.783,-1.423 0.783,-2.235c0,-0.577 0,-1.155 0,-1.732c0.882,0 1.765,0 2.647,0c0.883,0 1.764,0 2.646,0c0,0.578 0,1.156 0,1.732z" fill="#13007C"/>
    <rect height="9.84" width="11.176" stroke-miterlimit="10" stroke-width="0.5712" stroke="#13007C" fill="#FFFFFF" y="79.35" x="67.90999"/>
   </g>
   <path d="m671.28799,0" fill="#13007C"/>
   <g>
    <g>
     <line y2="105.593" x2="721.07699" y1="105.593" x1="25.49799" stroke-linejoin="round" stroke-linecap="round" stroke-width="2.1052" stroke="#13007C" fill="none"/>
     <g>
      <polygon points="710.614013671875,118.50801086425781 708.4599609375,116.19599914550781 719.864990234375,105.59599304199219 708.4599609375,94.99400329589844 710.614013671875,92.68101501464844 724.5020141601562,105.59599304199219 " fill="#13007C"/>
     </g>
    </g>
   </g>
  </g>
  <text xml:space="preserve" text-anchor="start" font-family="'Georama'" font-size="10" id="svg_11" y="134.63944" x="39.55793" stroke-width="0" stroke="#000" fill="#212282">Saffy Bottle</text>
  <text xml:space="preserve" text-anchor="start" font-family="'Georama'" font-size="10" id="svg_12" y="136.68025" x="162.00695" stroke-width="0" stroke="#000" fill="#212282">Community units</text>
  <text xml:space="preserve" text-anchor="start" font-family="'Georama'" font-size="10" id="svg_13" y="138.72107" x="332.75533" stroke-width="0" stroke="#000" fill="#212282">Home Unit</text>
  <text xml:space="preserve" text-anchor="start" font-family="'Georama'" font-size="10" id="svg_14" y="140.76189" x="606.22483" stroke-width="0" stroke="#000" fill="#212282">Residential Unit</text>
  <text xml:space="preserve" text-anchor="start" font-family="'Georama'" font-size="10" id="svg_15" y="138.72107" x="434.11592" stroke-width="0" stroke="#000" fill="#212282">Industrial Units</text>
 </g>

</svg>