<?xml version="1.0" encoding="utf-8"?>
<!-- Generator: Adobe Illustrator 16.0.0, SVG Export Plug-In . SVG Version: 6.00 Build 0)  -->
<!DOCTYPE svg PUBLIC "-//W3C//DTD SVG 1.1//EN" "http://www.w3.org/Graphics/SVG/1.1/DTD/svg11.dtd">
<svg version="1.1" xmlns="http://www.w3.org/2000/svg" xmlns:xlink="http://www.w3.org/1999/xlink" x="0px" y="0px"
	 width="200" height="200" viewBox="0 0 200 800" enable-background="new 0 0 841.89 595.28" xml:space="preserve"   transform="rotate(90)">
<g id="Default">
	<g id="CIRCLE_2_">

			<linearGradient id="SVGID_2_" gradientUnits="userSpaceOnUse" x1="898.3535" y1="1159.6104" x2="1047.2471" y2="1159.6104" gradientTransform="matrix(0.0102 -0.9999 0.9999 0.0102 -746.7876 1211.6885)">
			<stop  offset="0" style="stop-color:#F5F8E2"/>
			<stop  offset="0.2205" style="stop-color:#F4C0D7"/>
			<stop  offset="0.3082" style="stop-color:#E0B9D4"/>
			<stop  offset="0.4792" style="stop-color:#BEAECF"/>
			<stop  offset="0.5041" style="stop-color:#BAB1D0"/>
			<stop  offset="0.6961" style="stop-color:#9CC1D5"/>
			<stop  offset="0.8586" style="stop-color:#8AC9D8"/>
			<stop  offset="0.971" style="stop-color:#83CCD9"/>
		</linearGradient>
		<path fill="url(#SVGID_2_)" d="M423.382,176.374c-41.112-0.419-74.775,32.566-75.195,73.682
			c-0.416,41.11,32.574,74.779,73.686,75.197c41.114,0.42,74.782-32.573,75.197-73.685
			C497.491,210.455,464.495,176.788,423.382,176.374L423.382,176.374z"/>
	</g>
	<g id="CIRCLE_3_">
		<path fill="#FFFFFF" d="M402.632,201.166c-3.168,11.044,3.223,22.567,14.263,25.73c11.044,3.17,22.563-3.217,25.732-14.263
			c3.165-11.041-3.22-22.561-14.263-25.728C417.321,183.737,405.795,190.124,402.632,201.166L402.632,201.166z"/>
	</g>
	<g id="CIRCLE_4_">

			<linearGradient id="SVGID_3_" gradientUnits="userSpaceOnUse" x1="876.5508" y1="1285.1826" x2="1025.4385" y2="1285.1826" gradientTransform="matrix(0.9998 -0.0192 0.0192 0.9998 -326.3574 -1015.854)">
			<stop  offset="0" style="stop-color:#F5F8E2"/>
			<stop  offset="0.3115" style="stop-color:#F4C0D7"/>
			<stop  offset="0.6015" style="stop-color:#BEAECF"/>
			<stop  offset="0.971" style="stop-color:#83C6D6"/>
		</linearGradient>
		<path fill="url(#SVGID_3_)" d="M723.552,249.377c-0.787-41.107-34.749-73.787-75.859-72.996
			c-41.103,0.794-73.788,34.758-72.999,75.868c0.787,41.104,34.76,73.79,75.865,72.995
			C691.665,324.461,724.35,290.486,723.552,249.377L723.552,249.377z"/>
	</g>
	<g id="CIRCLE_1_">
		<path fill="#FFFFFF" d="M670.75,242.781c-3.168,11.044,3.223,22.567,14.264,25.73c11.044,3.17,22.562-3.217,25.731-14.263
			c3.165-11.041-3.22-22.561-14.263-25.728C685.439,225.352,673.914,231.739,670.75,242.781L670.75,242.781z"/>
	</g>
</g>

</svg>
